<svg width="19" height="20" viewBox="0 0 19 20" fill="none" xmlns="http://www.w3.org/2000/svg">
<path fill-rule="evenodd" clip-rule="evenodd" d="M16.7882 17.3287C16.7008 17.4218 16.5954 17.4966 16.4784 17.5484C16.3614 17.6001 16.235 17.6279 16.107 17.63C15.9789 17.6322 15.8517 17.6086 15.733 17.5608C15.6143 17.513 15.5065 17.4419 15.416 17.3518C15.3255 17.2617 15.2542 17.1543 15.2063 17.0362C15.1584 16.9181 15.1349 16.7914 15.1372 16.6641C15.1396 16.5367 15.1676 16.4111 15.2198 16.2947C15.272 16.1784 15.3472 16.0738 15.441 15.987C15.6219 15.8194 15.8612 15.7283 16.1083 15.7327C16.3555 15.7372 16.5913 15.837 16.7659 16.011C16.9406 16.1849 17.0406 16.4196 17.0447 16.6655C17.0489 16.9113 16.9569 17.149 16.7882 17.3287ZM10.1736 10.75C10.0862 10.8431 9.98085 10.9179 9.86381 10.9697C9.74677 11.0214 9.62046 11.049 9.4924 11.0511C9.36434 11.0532 9.23715 11.0299 9.11843 10.9821C8.99971 10.9343 8.89189 10.863 8.80139 10.7729C8.71089 10.6827 8.63956 10.5754 8.59167 10.4573C8.54378 10.3391 8.5203 10.2127 8.52263 10.0854C8.52496 9.95801 8.55307 9.83235 8.60525 9.71602C8.65744 9.59968 8.73264 9.49506 8.82638 9.40826C9.00731 9.24072 9.24657 9.14955 9.49374 9.15402C9.7409 9.1585 9.97667 9.25827 10.1514 9.43225C10.326 9.60623 10.426 9.84092 10.4301 10.0868C10.4343 10.3326 10.3423 10.5703 10.1736 10.75ZM3.53148 17.3562C3.44408 17.4493 3.33871 17.5241 3.22167 17.5758C3.10464 17.6276 2.97833 17.6553 2.85027 17.6575C2.72221 17.6596 2.59501 17.6361 2.47629 17.5883C2.35757 17.5405 2.24975 17.4694 2.15925 17.3793C2.06875 17.2891 1.99742 17.1816 1.94953 17.0634C1.90164 16.9453 1.87816 16.8189 1.8805 16.6915C1.88283 16.5642 1.91092 16.4385 1.9631 16.3222C2.01529 16.2058 2.0905 16.1012 2.18424 16.0144C2.36518 15.8469 2.60443 15.7557 2.8516 15.7602C3.09877 15.7647 3.33454 15.8644 3.50921 16.0384C3.68389 16.2124 3.78385 16.4471 3.788 16.6929C3.79215 16.9388 3.70019 17.1765 3.53148 17.3562ZM3.55903 4.17131C3.47162 4.26442 3.36626 4.33897 3.24922 4.39071C3.13218 4.44245 3.00587 4.47024 2.87781 4.47238C2.74975 4.47452 2.62257 4.45097 2.50385 4.40317C2.38513 4.35537 2.27731 4.28429 2.18681 4.19415C2.09631 4.10401 2.02498 3.9967 1.97709 3.87855C1.9292 3.76041 1.90571 3.63379 1.90804 3.50643C1.91037 3.37906 1.93848 3.25364 1.99066 3.1373C2.04285 3.02097 2.11805 2.91612 2.21179 2.82932C2.39272 2.66178 2.63199 2.57084 2.87916 2.57531C3.12633 2.57979 3.36209 2.67933 3.53677 2.85331C3.71145 3.02729 3.81141 3.26198 3.81556 3.50781C3.81971 3.75365 3.72773 3.99159 3.55903 4.17131ZM15.4685 2.80394C15.5559 2.71083 15.6613 2.63605 15.7783 2.58431C15.8954 2.53257 16.0217 2.50478 16.1497 2.50264C16.2778 2.5005 16.405 2.52405 16.5237 2.57185C16.6424 2.61965 16.7502 2.69073 16.8407 2.78087C16.9313 2.87101 17.0026 2.97856 17.0505 3.0967C17.0984 3.21484 17.1218 3.34123 17.1195 3.46859C17.1172 3.59596 17.0891 3.72162 17.0369 3.83795C16.9847 3.95428 16.9095 4.0589 16.8158 4.1457C16.6348 4.31324 16.3956 4.40442 16.1484 4.39994C15.9012 4.39546 15.6655 4.29569 15.4908 4.12171C15.3161 3.94773 15.2162 3.71304 15.212 3.46721C15.2078 3.22137 15.2998 2.98366 15.4685 2.80394ZM14.8909 14.1007L12.0719 11.2973C12.5413 10.4251 12.4396 9.63396 12.0719 8.86288L14.9194 6.031C15.4506 6.2847 16.0479 6.36818 16.6288 6.27001C17.2098 6.17185 17.7458 5.89681 18.163 5.48286C18.4284 5.21899 18.6389 4.90575 18.7825 4.56097C18.9261 4.21618 19 3.84664 19 3.47344C19 3.10024 18.9261 2.73069 18.7825 2.38591C18.6389 2.04112 18.4284 1.72788 18.163 1.46402C17.8977 1.19996 17.5827 0.990502 17.2359 0.847582C16.8892 0.704662 16.5175 0.630952 16.1421 0.630952C15.7668 0.630952 15.3951 0.704662 15.0484 0.847582C14.7016 0.990502 14.3866 1.19996 14.1213 1.46402C13.7056 1.87927 13.4295 2.4124 13.331 2.99012C13.2325 3.56784 13.3164 4.16159 13.5712 4.68993L10.7237 7.52296C9.94844 7.15631 9.15322 7.0552 8.27628 7.52296L5.45733 4.71923C5.85257 3.77144 5.78607 2.36438 4.90722 1.49124C4.64178 1.22723 4.32665 1.01792 3.97983 0.875036C3.63301 0.732155 3.26128 0.658637 2.88589 0.658637C2.51049 0.658637 2.13877 0.732155 1.79195 0.875036C1.44512 1.01792 1.13 1.22723 0.86455 1.49124C0.599104 1.75525 0.388547 2.06888 0.244889 2.41382C0.101231 2.75877 0.027284 3.12845 0.027284 3.50181C0.027284 3.87518 0.101231 4.24486 0.244889 4.58981C0.388547 4.93475 0.599104 5.24815 0.86455 5.51216C1.74244 6.38624 3.15714 6.45248 4.11009 6.05938L6.92904 8.86288C6.45874 9.73507 6.5604 10.5262 6.92904 11.2973L4.08064 14.1291C3.54936 13.8757 2.95214 13.7924 2.37125 13.8906C1.79035 13.9887 1.25433 14.2636 0.837005 14.6773C0.571647 14.9411 0.361146 15.2544 0.217533 15.5992C0.0739192 15.9439 0 16.3135 0 16.6867C0 17.0599 0.0739192 17.4294 0.217533 17.7742C0.361146 18.119 0.571647 18.4322 0.837005 18.6961C1.10232 18.9602 1.41735 19.1696 1.7641 19.3125C2.11084 19.4555 2.48252 19.5292 2.85786 19.5292C3.23321 19.5292 3.60487 19.4555 3.95162 19.3125C4.29836 19.1696 4.6134 18.9602 4.87872 18.6961C5.29477 18.2811 5.57111 17.7481 5.66964 17.1702C5.76817 16.5924 5.68402 15.9984 5.42882 15.4702L8.27628 12.6381C9.05156 13.0038 9.84678 13.1049 10.7237 12.6381L13.5427 15.4418C13.1484 16.3887 13.2139 17.7948 14.0937 18.6689C14.3591 18.9329 14.6741 19.1424 15.0208 19.2853C15.3676 19.4282 15.7392 19.5017 16.1146 19.5017C16.4899 19.5017 16.8616 19.4282 17.2083 19.2853C17.5551 19.1424 17.8701 18.9329 18.1355 18.6689C18.4009 18.405 18.6116 18.0916 18.7553 17.7468C18.899 17.4019 18.9729 17.0321 18.9729 16.6588C18.9729 16.2855 18.899 15.9159 18.7553 15.571C18.6116 15.2261 18.4009 14.9128 18.1355 14.6489C17.2576 13.7739 15.8429 13.7076 14.8909 14.1007Z" fill="#B2B6C2"/>
</svg>
