<svg width="18" height="18" viewBox="0 0 18 18" fill="none" xmlns="http://www.w3.org/2000/svg">
<path d="M17.6986 9.08401C17.6986 8.49386 17.6488 7.90052 17.5427 7.31995H9.02734V10.6631H13.9037C13.7013 11.7413 13.0511 12.6951 12.0991 13.3012V15.4704H15.0083C16.7167 13.9583 17.6986 11.7253 17.6986 9.08401Z" fill="#4285F4"/>
<path d="M9.02746 17.5662C11.4623 17.5662 13.5157 16.7974 15.0117 15.4704L12.1025 13.3012C11.2931 13.8307 10.2482 14.1306 9.03077 14.1306C6.67554 14.1306 4.67857 12.6026 3.96205 10.5482H0.959961V12.7844C2.49252 15.716 5.61403 17.5662 9.02746 17.5662Z" fill="#34A853"/>
<path d="M3.95911 10.5482C3.58095 9.47003 3.58095 8.30249 3.95911 7.22428V4.9881H0.960337C-0.320112 7.4412 -0.320112 10.3313 0.960337 12.7844L3.95911 10.5482Z" fill="#FBBC04"/>
<path d="M9.02746 3.63871C10.3145 3.61957 11.5585 4.08531 12.4906 4.94023L15.0681 2.46161C13.4361 0.987836 11.2699 0.17758 9.02746 0.2031C5.61403 0.2031 2.49252 2.05329 0.959961 4.98808L3.95873 7.22426C4.67194 5.16672 6.67223 3.63871 9.02746 3.63871Z" fill="#EA4335"/>
</svg>
