<svg width="20" height="20" viewBox="0 0 20 20" fill="none" xmlns="http://www.w3.org/2000/svg">
<path fill-rule="evenodd" clip-rule="evenodd" d="M3 20C1.34315 20 0 18.6569 0 17V9.33609C0 8.48563 0.360964 7.67513 0.993106 7.1062L7.9931 0.806205C9.13402 -0.220618 10.866 -0.220619 12.0069 0.806204L19.0069 7.1062C19.639 7.67513 20 8.48563 20 9.33609V17C20 18.6569 18.6569 20 17 20H3ZM18 9.33609V17C18 17.5523 17.5523 18 17 18H14V13C14 11.3431 12.6569 10 11 10H9C7.34315 10 6 11.3431 6 13V18H3C2.44772 18 2 17.5523 2 17V9.33609C2 9.0526 2.12032 8.78243 2.33104 8.59279L9.33103 2.29279C9.71134 1.95052 10.2887 1.95052 10.669 2.29279L17.669 8.59279C17.8797 8.78243 18 9.0526 18 9.33609ZM8 18V13C8 12.4477 8.44772 12 9 12H11C11.5523 12 12 12.4477 12 13V18H8Z" fill="white" fill-opacity="0.7"/>
</svg>
