<svg width="19" height="26" viewBox="0 0 19 26" fill="none" xmlns="http://www.w3.org/2000/svg">
<path d="M0.245972 0H18.9999V25.7197L9.62296 15.539L0.245972 25.7197V0Z" fill="white"/>
<path d="M6.54313 5.50372H6.20533C6.19234 5.43154 6.16816 5.36802 6.13279 5.31317C6.09742 5.25831 6.05411 5.21175 6.00287 5.1735C5.95162 5.13524 5.89424 5.10637 5.83072 5.08688C5.76792 5.0674 5.70116 5.05765 5.63042 5.05765C5.50266 5.05765 5.38826 5.08977 5.28721 5.15401C5.18688 5.21825 5.10748 5.31245 5.04902 5.43659C4.99127 5.56074 4.9624 5.71232 4.9624 5.89132C4.9624 6.07177 4.99127 6.22407 5.04902 6.34822C5.10748 6.47237 5.18724 6.5662 5.28829 6.62972C5.38934 6.69324 5.50302 6.725 5.62934 6.725C5.69935 6.725 5.76576 6.71561 5.82855 6.69685C5.89207 6.67736 5.94945 6.64885 6.0007 6.61131C6.05195 6.57378 6.09526 6.52795 6.13062 6.47381C6.16671 6.41896 6.19162 6.35616 6.20533 6.28542L6.54313 6.28651C6.52508 6.3955 6.49008 6.49583 6.43811 6.58749C6.38686 6.67844 6.32082 6.75712 6.23998 6.82352C6.15986 6.8892 6.06819 6.94009 5.96497 6.97618C5.86176 7.01227 5.74916 7.03032 5.62717 7.03032C5.43518 7.03032 5.26411 6.98484 5.11398 6.8939C4.96384 6.80223 4.84547 6.67122 4.75885 6.50088C4.67296 6.33054 4.63001 6.12735 4.63001 5.89132C4.63001 5.65458 4.67332 5.45139 4.75994 5.28177C4.84655 5.11143 4.96493 4.98078 5.11506 4.88983C5.26519 4.79817 5.4359 4.75233 5.62717 4.75233C5.74483 4.75233 5.85454 4.7693 5.95631 4.80322C6.05881 4.83642 6.15083 4.8855 6.2324 4.95047C6.31396 5.01471 6.38145 5.09338 6.43486 5.18649C6.48827 5.27888 6.52436 5.38462 6.54313 5.50372ZM7.58748 7.03356C7.43158 7.03356 7.29552 6.99783 7.17931 6.92638C7.0631 6.85492 6.97287 6.75495 6.90864 6.62647C6.8444 6.49799 6.81228 6.34786 6.81228 6.17607C6.81228 6.00356 6.8444 5.85271 6.90864 5.72351C6.97287 5.59431 7.0631 5.49398 7.17931 5.42252C7.29552 5.35106 7.43158 5.31533 7.58748 5.31533C7.74339 5.31533 7.87945 5.35106 7.99566 5.42252C8.11187 5.49398 8.20209 5.59431 8.26633 5.72351C8.33057 5.85271 8.36269 6.00356 8.36269 6.17607C8.36269 6.34786 8.33057 6.49799 8.26633 6.62647C8.20209 6.75495 8.11187 6.85492 7.99566 6.92638C7.87945 6.99783 7.74339 7.03356 7.58748 7.03356ZM7.58857 6.76181C7.68962 6.76181 7.77334 6.7351 7.83975 6.68169C7.90615 6.62828 7.95524 6.55718 7.987 6.4684C8.01948 6.37962 8.03572 6.28181 8.03572 6.17499C8.03572 6.06889 8.01948 5.97144 7.987 5.88266C7.95524 5.79316 7.90615 5.72134 7.83975 5.66721C7.77334 5.61307 7.68962 5.58601 7.58857 5.58601C7.48679 5.58601 7.40234 5.61307 7.33522 5.66721C7.26881 5.72134 7.21937 5.79316 7.18689 5.88266C7.15513 5.97144 7.13925 6.06889 7.13925 6.17499C7.13925 6.28181 7.15513 6.37962 7.18689 6.4684C7.21937 6.55718 7.26881 6.62828 7.33522 6.68169C7.40234 6.7351 7.48679 6.76181 7.58857 6.76181ZM8.69355 7V5.33699H9.00428V5.60766H9.02485C9.0595 5.51599 9.11616 5.44453 9.19483 5.39329C9.27351 5.34132 9.3677 5.31533 9.47742 5.31533C9.58857 5.31533 9.68168 5.34132 9.75675 5.39329C9.83254 5.44526 9.88848 5.51671 9.92457 5.60766H9.94189C9.98159 5.51888 10.0447 5.44814 10.1314 5.39545C10.218 5.34204 10.3212 5.31533 10.441 5.31533C10.5919 5.31533 10.7149 5.36261 10.8102 5.45717C10.9062 5.55172 10.9542 5.69427 10.9542 5.88483V7H10.6305V5.91514C10.6305 5.80254 10.5998 5.72098 10.5385 5.67046C10.4771 5.61993 10.4038 5.59467 10.3187 5.59467C10.2133 5.59467 10.1314 5.62715 10.0729 5.69211C10.0144 5.75635 9.9852 5.83899 9.9852 5.94005V7H9.66256V5.89457C9.66256 5.80435 9.63441 5.73181 9.57811 5.67695C9.52181 5.62209 9.44855 5.59467 9.35832 5.59467C9.29697 5.59467 9.24031 5.61091 9.18834 5.64339C9.13709 5.67515 9.09559 5.71954 9.06383 5.77656C9.03279 5.83358 9.01727 5.89962 9.01727 5.97469V7H8.69355ZM11.3576 7V5.33699H11.6813V7H11.3576ZM11.5211 5.08039C11.4648 5.08039 11.4164 5.06162 11.376 5.02409C11.3363 4.98583 11.3165 4.94036 11.3165 4.88767C11.3165 4.83426 11.3363 4.78878 11.376 4.75125C11.4164 4.713 11.4648 4.69387 11.5211 4.69387C11.5774 4.69387 11.6254 4.713 11.6651 4.75125C11.7055 4.78878 11.7257 4.83426 11.7257 4.88767C11.7257 4.94036 11.7055 4.98583 11.6651 5.02409C11.6254 5.06162 11.5774 5.08039 11.5211 5.08039ZM12.4101 6.01259V7H12.0864V5.33699H12.3971V5.60766H12.4177C12.4559 5.5196 12.5158 5.44886 12.5974 5.39545C12.6797 5.34204 12.7832 5.31533 12.9081 5.31533C13.0214 5.31533 13.1207 5.33915 13.2059 5.38679C13.291 5.43371 13.3571 5.50372 13.404 5.59683C13.4509 5.68994 13.4744 5.80507 13.4744 5.94221V7H13.1506V5.98119C13.1506 5.86065 13.1192 5.76645 13.0564 5.69861C12.9937 5.63003 12.9074 5.59575 12.7977 5.59575C12.7226 5.59575 12.6559 5.61199 12.5974 5.64447C12.5396 5.67695 12.4938 5.72459 12.4599 5.78739C12.4267 5.84946 12.4101 5.92453 12.4101 6.01259ZM14.5753 7.65828C14.4432 7.65828 14.3295 7.64095 14.2342 7.60631C14.1397 7.57166 14.0625 7.52583 14.0025 7.46881C13.9426 7.41178 13.8979 7.34935 13.8683 7.2815L14.1465 7.16673C14.166 7.19849 14.192 7.23206 14.2245 7.26742C14.2577 7.30351 14.3025 7.33419 14.3588 7.35945C14.4158 7.38472 14.489 7.39735 14.5785 7.39735C14.7012 7.39735 14.8027 7.36739 14.8828 7.30748C14.9629 7.2483 15.003 7.15374 15.003 7.02382V6.69685H14.9824C14.9629 6.73221 14.9347 6.77155 14.8979 6.81486C14.8618 6.85817 14.812 6.8957 14.7485 6.92746C14.685 6.95922 14.6024 6.9751 14.5006 6.9751C14.3692 6.9751 14.2508 6.94442 14.1455 6.88307C14.0408 6.821 13.9578 6.72969 13.8964 6.60915C13.8358 6.48789 13.8055 6.33884 13.8055 6.162C13.8055 5.98516 13.8355 5.83358 13.8954 5.70727C13.956 5.58095 14.039 5.48423 14.1444 5.41711C14.2498 5.34926 14.3692 5.31533 14.5027 5.31533C14.606 5.31533 14.6893 5.33266 14.7529 5.3673C14.8164 5.40123 14.8658 5.44092 14.9012 5.4864C14.9373 5.53187 14.9651 5.57193 14.9845 5.60658H15.0084V5.33699H15.3256V7.03681C15.3256 7.17973 15.2924 7.29702 15.226 7.38869C15.1596 7.48035 15.0697 7.5482 14.9564 7.59223C14.8438 7.63626 14.7168 7.65828 14.5753 7.65828ZM14.572 6.70659C14.6652 6.70659 14.7438 6.68494 14.8081 6.64163C14.873 6.5976 14.9221 6.5348 14.9553 6.45324C14.9892 6.37096 15.0062 6.27243 15.0062 6.15767C15.0062 6.04579 14.9896 5.94726 14.9564 5.86209C14.9232 5.77692 14.8745 5.71051 14.8102 5.66288C14.746 5.61452 14.6666 5.59034 14.572 5.59034C14.4746 5.59034 14.3934 5.6156 14.3284 5.66612C14.2635 5.71593 14.2144 5.78378 14.1812 5.86967C14.1487 5.95556 14.1325 6.05156 14.1325 6.15767C14.1325 6.26666 14.1491 6.36229 14.1823 6.44458C14.2155 6.52686 14.2646 6.5911 14.3295 6.6373C14.3952 6.68349 14.476 6.70659 14.572 6.70659ZM7.78475 8.36514C7.77321 8.26264 7.72557 8.18324 7.64184 8.12694C7.55811 8.06992 7.45273 8.04141 7.32569 8.04141C7.23475 8.04141 7.15607 8.05585 7.08967 8.08472C7.02326 8.11287 6.97165 8.15185 6.93484 8.20165C6.89875 8.25073 6.88071 8.30667 6.88071 8.36947C6.88071 8.42216 6.89298 8.46763 6.91752 8.50589C6.94278 8.54414 6.97562 8.57626 7.01604 8.60225C7.05719 8.62751 7.10122 8.6488 7.14813 8.66612C7.19505 8.68273 7.24016 8.69644 7.28347 8.70727L7.50001 8.76357C7.57074 8.78089 7.64328 8.80435 7.71763 8.83394C7.79197 8.86354 7.8609 8.90251 7.92442 8.95087C7.98794 8.99923 8.03919 9.05914 8.07816 9.1306C8.11786 9.20206 8.13771 9.28759 8.13771 9.3872C8.13771 9.51279 8.10523 9.62431 8.04027 9.72175C7.97603 9.81919 7.88256 9.89606 7.75985 9.95236C7.63787 10.0087 7.49026 10.0368 7.31703 10.0368C7.15102 10.0368 7.00738 10.0105 6.88612 9.95778C6.76486 9.90508 6.66994 9.83038 6.60137 9.73366C6.5328 9.63622 6.49491 9.52073 6.48769 9.3872H6.82332C6.82982 9.46732 6.85581 9.53408 6.90128 9.58749C6.94747 9.64019 7.0063 9.67952 7.07776 9.70551C7.14994 9.73077 7.22897 9.7434 7.31487 9.7434C7.40942 9.7434 7.49351 9.72861 7.56713 9.69901C7.64148 9.6687 7.69994 9.62683 7.74253 9.57342C7.78512 9.51929 7.80641 9.45613 7.80641 9.38395C7.80641 9.31827 7.78764 9.26449 7.75011 9.22263C7.7133 9.18076 7.66313 9.14612 7.59961 9.11869C7.53682 9.09126 7.46572 9.06708 7.38632 9.04615L7.12431 8.97469C6.94675 8.92633 6.806 8.85523 6.70206 8.7614C6.59885 8.66757 6.54724 8.54342 6.54724 8.38896C6.54724 8.2612 6.58188 8.14968 6.65118 8.0544C6.72047 7.95913 6.8143 7.88514 6.93268 7.83245C7.05105 7.77904 7.18458 7.75233 7.33327 7.75233C7.48341 7.75233 7.61585 7.77868 7.73062 7.83137C7.84611 7.88406 7.93705 7.9566 8.00346 8.04899C8.06986 8.14066 8.10451 8.24604 8.1074 8.36514H7.78475ZM9.18152 10.0336C9.02562 10.0336 8.88956 9.99783 8.77335 9.92638C8.65714 9.85492 8.56692 9.75495 8.50268 9.62647C8.43844 9.49799 8.40632 9.34786 8.40632 9.17607C8.40632 9.00356 8.43844 8.85271 8.50268 8.72351C8.56692 8.59431 8.65714 8.49398 8.77335 8.42252C8.88956 8.35106 9.02562 8.31533 9.18152 8.31533C9.33743 8.31533 9.47349 8.35106 9.5897 8.42252C9.70591 8.49398 9.79613 8.59431 9.86037 8.72351C9.92461 8.85271 9.95673 9.00356 9.95673 9.17607C9.95673 9.34786 9.92461 9.49799 9.86037 9.62647C9.79613 9.75495 9.70591 9.85492 9.5897 9.92638C9.47349 9.99783 9.33743 10.0336 9.18152 10.0336ZM9.18261 9.76181C9.28366 9.76181 9.36739 9.7351 9.43379 9.68169C9.5002 9.62828 9.54928 9.55718 9.58104 9.4684C9.61352 9.37962 9.62976 9.28181 9.62976 9.17499C9.62976 9.06889 9.61352 8.97144 9.58104 8.88266C9.54928 8.79316 9.5002 8.72134 9.43379 8.66721C9.36739 8.61307 9.28366 8.58601 9.18261 8.58601C9.08083 8.58601 8.99638 8.61307 8.92926 8.66721C8.86285 8.72134 8.81341 8.79316 8.78093 8.88266C8.74917 8.97144 8.73329 9.06889 8.73329 9.17499C8.73329 9.28181 8.74917 9.37962 8.78093 9.4684C8.81341 9.55718 8.86285 9.62828 8.92926 9.68169C8.99638 9.7351 9.08083 9.76181 9.18261 9.76181ZM10.9881 10.0336C10.8322 10.0336 10.6961 9.99783 10.5799 9.92638C10.4637 9.85492 10.3735 9.75495 10.3092 9.62647C10.245 9.49799 10.2129 9.34786 10.2129 9.17607C10.2129 9.00356 10.245 8.85271 10.3092 8.72351C10.3735 8.59431 10.4637 8.49398 10.5799 8.42252C10.6961 8.35106 10.8322 8.31533 10.9881 8.31533C11.144 8.31533 11.2801 8.35106 11.3963 8.42252C11.5125 8.49398 11.6027 8.59431 11.6669 8.72351C11.7312 8.85271 11.7633 9.00356 11.7633 9.17607C11.7633 9.34786 11.7312 9.49799 11.6669 9.62647C11.6027 9.75495 11.5125 9.85492 11.3963 9.92638C11.2801 9.99783 11.144 10.0336 10.9881 10.0336ZM10.9892 9.76181C11.0902 9.76181 11.174 9.7351 11.2404 9.68169C11.3068 9.62828 11.3558 9.55718 11.3876 9.4684C11.4201 9.37962 11.4363 9.28181 11.4363 9.17499C11.4363 9.06889 11.4201 8.97144 11.3876 8.88266C11.3558 8.79316 11.3068 8.72134 11.2404 8.66721C11.174 8.61307 11.0902 8.58601 10.9892 8.58601C10.8874 8.58601 10.803 8.61307 10.7358 8.66721C10.6694 8.72134 10.62 8.79316 10.5875 8.88266C10.5557 8.97144 10.5399 9.06889 10.5399 9.17499C10.5399 9.28181 10.5557 9.37962 10.5875 9.4684C10.62 9.55718 10.6694 9.62828 10.7358 9.68169C10.803 9.7351 10.8874 9.76181 10.9892 9.76181ZM12.4179 9.01259V10H12.0942V8.33699H12.4049V8.60766H12.4255C12.4637 8.5196 12.5236 8.44886 12.6052 8.39545C12.6875 8.34204 12.7911 8.31533 12.9159 8.31533C13.0292 8.31533 13.1285 8.33915 13.2137 8.38679C13.2988 8.43371 13.3649 8.50372 13.4118 8.59683C13.4587 8.68994 13.4822 8.80507 13.4822 8.94221V10H13.1584V8.98119C13.1584 8.86065 13.127 8.76645 13.0642 8.69861C13.0015 8.63003 12.9152 8.59575 12.8055 8.59575C12.7304 8.59575 12.6637 8.61199 12.6052 8.64447C12.5474 8.67695 12.5016 8.72459 12.4677 8.78739C12.4345 8.84946 12.4179 8.92453 12.4179 9.01259Z" fill="#0019FD"/>
</svg>
