<svg width="72" height="72" viewBox="0 0 72 72" fill="none" xmlns="http://www.w3.org/2000/svg">
<path d="M24.0029 36.0014C24.0029 29.374 29.374 24 36.0014 24C42.6289 24 48.0029 29.374 48.0029 36.0014C48.0029 42.6289 42.6289 48.0029 36.0014 48.0029C29.374 48.0029 24.0029 42.6289 24.0029 36.0014ZM17.5151 36.0014C17.5151 46.2114 25.7914 54.4877 36.0014 54.4877C46.2114 54.4877 54.4877 46.2114 54.4877 36.0014C54.4877 25.7914 46.2114 17.5151 36.0014 17.5151C25.7914 17.5151 17.5151 25.7914 17.5151 36.0014ZM50.8994 16.7821C50.8991 17.6366 51.1521 18.472 51.6265 19.1826C52.101 19.8932 52.7755 20.4472 53.5647 20.7745C54.354 21.1018 55.2226 21.1877 56.0607 21.0214C56.8988 20.855 57.6688 20.4439 58.2732 19.8399C58.8776 19.236 59.2894 18.4664 59.4564 17.6284C59.6234 16.7904 59.5382 15.9217 59.2116 15.1322C58.8849 14.3427 58.3314 13.6677 57.6212 13.1927C56.9109 12.7177 56.0758 12.464 55.2213 12.4637H55.2196C54.0743 12.4642 52.976 12.9193 52.166 13.729C51.3559 14.5387 50.9004 15.6368 50.8994 16.7821ZM21.4569 65.3057C17.9469 65.1459 16.0391 64.5612 14.7712 64.0673C13.0904 63.4129 11.8911 62.6336 10.6302 61.3744C9.3693 60.1152 8.58879 58.9171 7.93731 57.2362C7.44308 55.969 6.85842 54.0606 6.69886 50.5506C6.52432 46.7558 6.48948 45.6158 6.48948 36.0017C6.48948 26.3876 6.5272 25.2508 6.69886 21.4528C6.85871 17.9428 7.44769 16.0382 7.93731 14.7672C8.59167 13.0864 9.37103 11.8871 10.6302 10.6262C11.8894 9.36527 13.0875 8.58476 14.7712 7.93328C16.0385 7.43905 17.9469 6.85439 21.4569 6.69483C25.2517 6.52029 26.3916 6.48544 36.0014 6.48544C45.6112 6.48544 46.7523 6.52317 50.5503 6.69483C54.0603 6.85467 55.965 7.44366 57.236 7.93328C58.9168 8.58476 60.1161 9.367 61.377 10.6262C62.6379 11.8854 63.4155 13.0864 64.0699 14.7672C64.5641 16.0345 65.1488 17.9428 65.3083 21.4528C65.4829 25.2508 65.5177 26.3876 65.5177 36.0017C65.5177 45.6158 65.4829 46.7526 65.3083 50.5506C65.1485 54.0606 64.561 55.9684 64.0699 57.2362C63.4155 58.9171 62.6362 60.1164 61.377 61.3744C60.1178 62.6324 58.9168 63.4129 57.236 64.0673C55.9687 64.5615 54.0603 65.1462 50.5503 65.3057C46.7555 65.4803 45.6156 65.5151 36.0014 65.5151C26.3873 65.5151 25.2505 65.4803 21.4569 65.3057ZM21.1588 0.218025C17.3262 0.39256 14.7073 1.00026 12.4202 1.89022C10.0516 2.80926 8.04647 4.04224 6.04277 6.04277C4.03907 8.0433 2.80926 10.0516 1.89022 12.4202C1.00026 14.7087 0.39256 17.3262 0.218025 21.1588C0.0406096 24.9974 0 26.2246 0 36.0014C0 45.7783 0.0406096 47.0055 0.218025 50.8441C0.39256 54.677 1.00026 57.2941 1.89022 59.5827C2.80926 61.9498 4.03936 63.9604 6.04277 65.9601C8.04618 67.9598 10.0516 69.191 12.4202 70.1127C14.7116 71.0026 17.3262 71.6103 21.1588 71.7849C24.9994 71.9594 26.2246 72.0029 36.0014 72.0029C45.7783 72.0029 47.0055 71.9623 50.8441 71.7849C54.677 71.6103 57.2941 71.0026 59.5827 70.1127C61.9498 69.191 63.9564 67.9606 65.9601 65.9601C67.9638 63.9596 69.191 61.9498 70.1127 59.5827C71.0026 57.2941 71.6132 54.6767 71.7849 50.8441C71.9594 47.0026 72 45.7783 72 36.0014C72 26.2246 71.9594 24.9974 71.7849 21.1588C71.6103 17.3259 71.0026 14.7073 70.1127 12.4202C69.191 10.053 67.9606 8.04646 65.9601 6.04277C63.9596 4.03907 61.9498 2.80926 59.5856 1.89022C57.2941 1.00026 54.6767 0.38968 50.847 0.218025C47.0084 0.0434897 45.7812 0 36.0043 0C26.2275 0 24.9994 0.0406096 21.1588 0.218025Z" fill="url(#paint0_radial_76_78)"/>
<path d="M24.0029 36.0014C24.0029 29.374 29.374 24 36.0014 24C42.6289 24 48.0029 29.374 48.0029 36.0014C48.0029 42.6289 42.6289 48.0029 36.0014 48.0029C29.374 48.0029 24.0029 42.6289 24.0029 36.0014ZM17.5151 36.0014C17.5151 46.2114 25.7914 54.4877 36.0014 54.4877C46.2114 54.4877 54.4877 46.2114 54.4877 36.0014C54.4877 25.7914 46.2114 17.5151 36.0014 17.5151C25.7914 17.5151 17.5151 25.7914 17.5151 36.0014ZM50.8994 16.7821C50.8991 17.6366 51.1521 18.472 51.6265 19.1826C52.101 19.8932 52.7755 20.4472 53.5647 20.7745C54.354 21.1018 55.2226 21.1877 56.0607 21.0214C56.8988 20.855 57.6688 20.4439 58.2732 19.8399C58.8776 19.236 59.2894 18.4664 59.4564 17.6284C59.6234 16.7904 59.5382 15.9217 59.2116 15.1322C58.8849 14.3427 58.3314 13.6677 57.6212 13.1927C56.9109 12.7177 56.0758 12.464 55.2213 12.4637H55.2196C54.0743 12.4642 52.976 12.9193 52.166 13.729C51.3559 14.5387 50.9004 15.6368 50.8994 16.7821ZM21.4569 65.3057C17.9469 65.1459 16.0391 64.5612 14.7712 64.0673C13.0904 63.4129 11.8911 62.6336 10.6302 61.3744C9.3693 60.1152 8.58879 58.9171 7.93731 57.2362C7.44308 55.969 6.85842 54.0606 6.69886 50.5506C6.52432 46.7558 6.48948 45.6158 6.48948 36.0017C6.48948 26.3876 6.5272 25.2508 6.69886 21.4528C6.85871 17.9428 7.44769 16.0382 7.93731 14.7672C8.59167 13.0864 9.37103 11.8871 10.6302 10.6262C11.8894 9.36527 13.0875 8.58476 14.7712 7.93328C16.0385 7.43905 17.9469 6.85439 21.4569 6.69483C25.2517 6.52029 26.3916 6.48544 36.0014 6.48544C45.6112 6.48544 46.7523 6.52317 50.5503 6.69483C54.0603 6.85467 55.965 7.44366 57.236 7.93328C58.9168 8.58476 60.1161 9.367 61.377 10.6262C62.6379 11.8854 63.4155 13.0864 64.0699 14.7672C64.5641 16.0345 65.1488 17.9428 65.3083 21.4528C65.4829 25.2508 65.5177 26.3876 65.5177 36.0017C65.5177 45.6158 65.4829 46.7526 65.3083 50.5506C65.1485 54.0606 64.561 55.9684 64.0699 57.2362C63.4155 58.9171 62.6362 60.1164 61.377 61.3744C60.1178 62.6324 58.9168 63.4129 57.236 64.0673C55.9687 64.5615 54.0603 65.1462 50.5503 65.3057C46.7555 65.4803 45.6156 65.5151 36.0014 65.5151C26.3873 65.5151 25.2505 65.4803 21.4569 65.3057ZM21.1588 0.218025C17.3262 0.39256 14.7073 1.00026 12.4202 1.89022C10.0516 2.80926 8.04647 4.04224 6.04277 6.04277C4.03907 8.0433 2.80926 10.0516 1.89022 12.4202C1.00026 14.7087 0.39256 17.3262 0.218025 21.1588C0.0406096 24.9974 0 26.2246 0 36.0014C0 45.7783 0.0406096 47.0055 0.218025 50.8441C0.39256 54.677 1.00026 57.2941 1.89022 59.5827C2.80926 61.9498 4.03936 63.9604 6.04277 65.9601C8.04618 67.9598 10.0516 69.191 12.4202 70.1127C14.7116 71.0026 17.3262 71.6103 21.1588 71.7849C24.9994 71.9594 26.2246 72.0029 36.0014 72.0029C45.7783 72.0029 47.0055 71.9623 50.8441 71.7849C54.677 71.6103 57.2941 71.0026 59.5827 70.1127C61.9498 69.191 63.9564 67.9606 65.9601 65.9601C67.9638 63.9596 69.191 61.9498 70.1127 59.5827C71.0026 57.2941 71.6132 54.6767 71.7849 50.8441C71.9594 47.0026 72 45.7783 72 36.0014C72 26.2246 71.9594 24.9974 71.7849 21.1588C71.6103 17.3259 71.0026 14.7073 70.1127 12.4202C69.191 10.053 67.9606 8.04646 65.9601 6.04277C63.9596 4.03907 61.9498 2.80926 59.5856 1.89022C57.2941 1.00026 54.6767 0.38968 50.847 0.218025C47.0084 0.0434897 45.7812 0 36.0043 0C26.2275 0 24.9994 0.0406096 21.1588 0.218025Z" fill="url(#paint1_radial_76_78)"/>
<defs>
<radialGradient id="paint0_radial_76_78" cx="0" cy="0" r="1" gradientUnits="userSpaceOnUse" gradientTransform="translate(9.56601 72.343) scale(93.9937 93.9937)">
<stop offset="0.09" stop-color="#FA8F21"/>
<stop offset="0.78" stop-color="#D82D7E"/>
</radialGradient>
<radialGradient id="paint1_radial_76_78" cx="0" cy="0" r="1" gradientUnits="userSpaceOnUse" gradientTransform="translate(43.6666 75.5687) scale(74.08 74.08)">
<stop offset="0.64" stop-color="#8C3AAA" stop-opacity="0"/>
<stop offset="1" stop-color="#8C3AAA"/>
</radialGradient>
</defs>
</svg>
