<svg width="39" height="40" viewBox="0 0 39 40" fill="none" xmlns="http://www.w3.org/2000/svg">
<rect x="0.5" width="38.5" height="39.3021" rx="4.8125" fill="#344BFD"/>
<path d="M19.3489 23.1401C20.2513 23.1401 21.0183 22.8242 21.6499 22.1926C22.2816 21.561 22.5974 20.794 22.5974 19.8916C22.5974 18.9893 22.2816 18.2223 21.6499 17.5906C21.0183 16.959 20.2513 16.6432 19.3489 16.6432C18.4466 16.6432 17.6796 16.959 17.048 17.5906C16.4163 18.2223 16.1005 18.9893 16.1005 19.8916C16.1005 20.794 16.4163 21.561 17.048 22.1926C17.6796 22.8242 18.4466 23.1401 19.3489 23.1401ZM24.7089 25.2515C25.4307 24.5297 25.9812 23.7085 26.3601 22.7881C26.7391 21.8678 26.9286 20.9023 26.9286 19.8916C26.9286 18.881 26.7391 17.9155 26.3601 16.9951C25.9812 16.0747 25.4307 15.2536 24.7089 14.5317L23.1929 16.0476C23.7163 16.571 24.1086 17.1619 24.3699 17.8202C24.6313 18.4786 24.7623 19.169 24.763 19.8916C24.7637 20.6142 24.6327 21.3047 24.3699 21.963C24.1072 22.6214 23.7148 23.2123 23.1929 23.7356L24.7089 25.2515ZM13.989 25.2515L15.505 23.7356C14.9816 23.2123 14.5889 22.621 14.3269 21.962C14.0648 21.3029 13.9342 20.6128 13.9349 19.8916C13.9356 19.1705 14.0666 18.4804 14.3279 17.8213C14.5893 17.1622 14.9816 16.571 15.505 16.0476L13.989 14.5317C13.2671 15.2536 12.7167 16.0747 12.3377 16.9951C11.9587 17.9155 11.7693 18.881 11.7693 19.8916C11.7693 20.9023 11.9587 21.8678 12.3377 22.7881C12.7167 23.7085 13.2671 24.5297 13.989 25.2515ZM8.52081 28.5541V11.2291H30.1771V28.5541H8.52081ZM10.6864 26.3885H28.0114V13.3948H10.6864V26.3885Z" fill="white"/>
</svg>
