<svg width="63" height="43" viewBox="0 0 63 43" fill="none" xmlns="http://www.w3.org/2000/svg">
<path d="M6.80472 28.2606C6.80472 30.6662 7.3325 32.5129 8.02285 33.6303C8.92773 35.0938 10.2773 35.715 11.6532 35.715C13.4276 35.715 15.0511 35.2746 18.1795 30.9475C20.6865 27.4795 23.6392 22.6114 25.6263 19.5595L28.9914 14.3891C31.329 10.7983 34.0347 6.80668 37.137 4.101C39.6704 1.89248 42.4016 0.665649 45.1511 0.665649C49.7674 0.665649 54.1644 3.34072 57.5295 8.35784C61.2124 13.8523 63 20.7734 63 27.9154C63 32.1614 62.1632 35.2812 60.739 37.7459C59.3633 40.1294 56.6816 42.511 52.1707 42.511V35.7139C56.0333 35.7139 56.997 32.1646 56.997 28.1028C56.997 22.3146 55.6474 15.8912 52.6744 11.3013C50.5649 8.04565 47.8307 6.05644 44.8226 6.05644C41.5691 6.05644 38.951 8.51063 36.0086 12.8852C34.4442 15.2098 32.8385 18.0424 31.0353 21.2389L29.0503 24.7553C25.0634 31.8263 24.0532 33.436 22.0595 36.0929C18.5653 40.7458 15.5812 42.51 11.6532 42.51C6.99314 42.51 4.04652 40.492 2.22144 37.4511C0.731772 34.9735 0 31.722 0 28.0175L6.80472 28.2606Z" fill="#0081FB"/>
<path d="M5.36548 8.83619C8.48521 4.02729 12.9875 0.664246 18.1513 0.664246C21.1417 0.664246 24.1153 1.54934 27.2192 4.08429C30.6149 6.85515 34.2342 11.4205 38.7497 18.9414L40.3686 21.6397C44.2772 28.151 46.5007 31.5008 47.8022 33.0805C49.4758 35.109 50.648 35.7139 52.1707 35.7139C56.0333 35.7139 56.997 32.1645 56.997 28.1027L63 27.9143C63 32.1603 62.1632 35.28 60.739 37.7448C59.3633 40.1282 56.6817 42.5099 52.1707 42.5099C49.3663 42.5099 46.882 41.9008 44.1347 39.3089C42.0235 37.3196 39.5535 33.7859 37.654 30.6091L32.0038 21.171C29.1691 16.4344 26.5676 12.9028 25.0634 11.3033C23.4442 9.58327 21.3629 7.50644 18.0415 7.50644C15.3535 7.50644 13.0706 9.39274 11.1603 12.2781L5.36548 8.83619Z" fill="url(#paint0_linear_76_152)"/>
<path d="M18.0415 7.50644C15.3535 7.50644 13.0706 9.39274 11.1603 12.2781C8.4588 16.3553 6.80604 22.4282 6.80604 28.2602C6.80604 30.6659 7.33383 32.5126 8.02417 33.6299L2.22144 37.4508C0.731773 34.9731 0 31.7217 0 28.0172C0 21.2803 1.84909 14.2586 5.36545 8.83619C8.48519 4.02729 12.9874 0.664246 18.1513 0.664246L18.0415 7.50644Z" fill="url(#paint1_linear_76_152)"/>
<defs>
<linearGradient id="paint0_linear_76_152" x1="13.657" y1="20.5026" x2="57.0355" y2="22.6934" gradientUnits="userSpaceOnUse">
<stop stop-color="#0064E1"/>
<stop offset="0.4" stop-color="#0064E1"/>
<stop offset="0.83" stop-color="#0073EE"/>
<stop offset="1" stop-color="#0082FB"/>
</linearGradient>
<linearGradient id="paint1_linear_76_152" x1="9.07551" y1="31.1171" x2="9.07551" y2="15.1239" gradientUnits="userSpaceOnUse">
<stop stop-color="#0082FB"/>
<stop offset="1" stop-color="#0064E0"/>
</linearGradient>
</defs>
</svg>
