<svg width="63" height="43" viewBox="0 0 63 43" fill="none" xmlns="http://www.w3.org/2000/svg">
<path d="M20.9999 0C23.758 0 26.4885 0.544525 29.0362 1.60284C31.5838 2.66116 33.8991 4.21199 35.8486 6.16787C37.799 8.12295 39.3451 10.4445 40.401 13C41.4566 15.5558 41.9999 18.294 41.9999 21.0592C41.9999 29.5769 36.8833 37.2554 29.0362 40.5147C21.189 43.7739 12.1567 41.9725 6.15115 35.9497C0.145623 29.9268 -1.65107 20.8692 1.59874 13C4.84934 5.13083 12.5066 0 20.9999 0ZM20.9999 27.376C21.8273 27.3767 22.6469 27.2144 23.412 26.8976C24.1772 26.5808 24.8715 26.1151 25.457 25.528C26.0425 24.941 26.5058 24.2444 26.8226 23.4776C27.1388 22.7103 27.301 21.8883 27.3001 21.0584C27.3001 18.5028 25.7651 16.1994 23.4112 15.2215C21.0574 14.2435 18.3474 14.7841 16.546 16.5911C14.7446 18.398 14.2055 21.1151 15.1803 23.476C16.1551 25.8369 18.453 27.376 21.0007 27.376H20.9999Z" fill="#00AEEF"/>
<path d="M44.6036 15.7943C49.9393 17.3341 56.2372 15.7943 56.2372 15.7943C54.4097 23.7967 48.613 28.8086 40.2552 29.4185C39.4496 31.2942 38.375 33.0425 37.0653 34.6084C35.7569 36.1729 34.2272 37.5382 32.5247 38.6612C30.8226 39.7834 28.9668 40.651 27.0149 41.2365C25.0629 41.822 23.0369 42.1183 20.9999 42.1175L27.3001 22.0379C33.7761 1.39872 37.0961 0.000762939 52.4546 0.000762939H63C61.2364 7.79274 55.156 13.7447 44.6044 15.7943H44.6036Z" fill="#008CCF"/>
</svg>
