<svg width="27" height="25" viewBox="0 0 27 25" fill="none" xmlns="http://www.w3.org/2000/svg">
<path d="M26.2423 22.5094L24.4291 24.3128L23.5709 23.4592L24.3566 22.6838H2.24226C2.08196 22.6838 1.92824 22.6204 1.81489 22.5077C1.70155 22.395 1.63787 22.2421 1.63787 22.0827V4.89688L0.858222 5.67832L0 4.82474L1.81315 3.02141C1.86933 2.96507 1.93618 2.92035 2.00983 2.88983C2.08347 2.85931 2.16247 2.8436 2.24226 2.8436C2.32204 2.8436 2.40104 2.85931 2.47469 2.88983C2.54834 2.92035 2.61518 2.96507 2.67137 3.02141L4.48451 4.82474L3.62629 5.67832L2.84664 4.89688V21.4815H4.0554V17.2738C4.0554 17.1143 4.11908 16.9614 4.23242 16.8487C4.34577 16.736 4.49949 16.6726 4.65978 16.6726H7.07731C7.2376 16.6726 7.39133 16.736 7.50467 16.8487C7.61802 16.9614 7.68169 17.1143 7.68169 17.2738V21.4815H8.89046V13.6671C8.89046 13.5077 8.95413 13.3548 9.06748 13.242C9.18082 13.1293 9.33455 13.066 9.49484 13.066H11.9124C12.0727 13.066 12.2264 13.1293 12.3397 13.242C12.4531 13.3548 12.5167 13.5077 12.5167 13.6671V21.4815H13.7255V10.6615C13.7255 10.5021 13.7892 10.3492 13.9025 10.2365C14.0159 10.1238 14.1696 10.0604 14.3299 10.0604H16.7474C16.9077 10.0604 17.0614 10.1238 17.1748 10.2365C17.2881 10.3492 17.3518 10.5021 17.3518 10.6615V21.4815H18.5606V8.25709C18.5606 8.09767 18.6242 7.94477 18.7376 7.83204C18.8509 7.71931 19.0047 7.65598 19.1649 7.65598H21.5825C21.7428 7.65598 21.8965 7.71931 22.0098 7.83204C22.1232 7.94477 22.1869 8.09767 22.1869 8.25709V21.4815H24.3566L23.5709 20.7061L24.4291 19.8525L26.2423 21.6559C26.2989 21.7117 26.3439 21.7782 26.3745 21.8515C26.4052 21.9247 26.421 22.0033 26.421 22.0827C26.421 22.162 26.4052 22.2406 26.3745 22.3138C26.3439 22.3871 26.2989 22.4536 26.2423 22.5094ZM19.7693 6.45376H20.9781V5.85264H21.5825C21.7428 5.85264 21.8965 5.78931 22.0098 5.67658C22.1232 5.56385 22.1869 5.41096 22.1869 5.25153V3.4482C22.1869 3.28877 22.1232 3.13588 22.0098 3.02315C21.8965 2.91042 21.7428 2.84709 21.5825 2.84709H19.7693V2.24598H22.1869V1.04375H20.9781V0.442642H19.7693V1.04375H19.1649C19.0047 1.04375 18.8509 1.10708 18.7376 1.21982C18.6242 1.33255 18.5606 1.48544 18.5606 1.64486V3.4482C18.5606 3.60762 18.6242 3.76052 18.7376 3.87325C18.8509 3.98598 19.0047 4.04931 19.1649 4.04931H20.9781V4.65042H18.5606V5.85264H19.7693V6.45376Z" fill="#000B33"/>
</svg>
