<svg width="61" height="70" viewBox="0 0 61 70" fill="none" xmlns="http://www.w3.org/2000/svg">
<path d="M53.4273 13.5065C53.3793 13.1579 53.0739 12.965 52.8215 12.9437C52.5695 12.9227 47.2377 12.5275 47.2377 12.5275C47.2377 12.5275 43.5347 8.85122 43.1283 8.44431C42.7216 8.03764 41.9274 8.16134 41.6191 8.25208C41.5737 8.26545 40.81 8.50114 39.5468 8.89205C38.3098 5.33256 36.1268 2.06153 32.2862 2.06153C32.1802 2.06153 32.071 2.06583 31.9619 2.07203C30.8697 0.627556 29.5166 0 28.348 0C19.4015 0 15.1273 11.184 13.7871 16.8674C10.3107 17.9446 7.84111 18.7104 7.52566 18.8095C5.5852 19.4182 5.52383 19.4793 5.26904 21.3078C5.07728 22.6921 0 61.9571 0 61.9571L39.5633 69.3698L61 64.7324C61 64.7324 53.4746 13.8552 53.4273 13.5065ZM37.3601 9.56832L34.0125 10.6045C34.0136 10.3685 34.0148 10.1364 34.0148 9.88258C34.0148 7.67037 33.7078 5.88919 33.2151 4.47719C35.194 4.72554 36.5119 6.97715 37.3601 9.56832ZM30.7603 4.91586C31.3105 6.29443 31.6682 8.27285 31.6682 10.9426C31.6682 11.0792 31.667 11.2041 31.6658 11.3304C29.4887 12.0048 27.1229 12.7369 24.7519 13.4714C26.0832 8.33351 28.5786 5.85194 30.7603 4.91586ZM28.1022 2.39966C28.4884 2.39966 28.8774 2.53076 29.2497 2.78699C26.3824 4.13619 23.3091 7.53426 22.0113 14.3201L16.5462 16.0127C18.0664 10.8368 21.6762 2.39966 28.1022 2.39966Z" fill="#95BF46"/>
<path d="M52.8215 12.9438C52.5695 12.9228 47.2377 12.5276 47.2377 12.5276C47.2377 12.5276 43.5347 8.85129 43.1283 8.44438C42.9762 8.29299 42.771 8.21538 42.5566 8.18195L39.5652 69.3694L61 64.7325C61 64.7325 53.4746 13.8553 53.4273 13.5066C53.3793 13.158 53.0739 12.965 52.8215 12.9438Z" fill="#5E8E3E"/>
<path d="M32.2863 24.7885L29.643 32.6511C29.643 32.6511 27.3272 31.4151 24.4884 31.4151C20.3266 31.4151 20.1172 34.0268 20.1172 34.685C20.1172 38.276 29.478 39.6519 29.478 48.0633C29.478 54.681 25.2807 58.9423 19.6212 58.9423C12.8299 58.9423 9.35681 54.7157 9.35681 54.7157L11.1752 48.7075C11.1752 48.7075 14.7452 51.7725 17.7577 51.7725C19.7261 51.7725 20.5267 50.2227 20.5267 49.0903C20.5267 44.4061 12.8471 44.1972 12.8471 36.5C12.8471 30.0217 17.4969 23.7526 26.883 23.7526C30.4996 23.7526 32.2863 24.7885 32.2863 24.7885Z" fill="white"/>
</svg>
