<svg width="65" height="65" viewBox="0 0 65 65" fill="none" xmlns="http://www.w3.org/2000/svg">
<path d="M63.9997 49.477C63.9997 57.3674 57.6034 63.7634 49.713 63.7634H15.2867C7.39632 63.7634 1 57.3674 1 49.477V15.2864C1 7.39632 7.39632 1 15.2867 1H49.7133C57.6037 1 64 7.39632 64 15.2864V49.477H63.9997Z" fill="#EEE312" stroke="#1A1A1A" stroke-width="1.08088" stroke-linecap="round" stroke-linejoin="round"/>
<path d="M32.3337 54.1656C36.6377 54.1656 39.8584 50.9961 39.8584 50.9961C40.1413 50.7596 40.4631 50.5332 40.4631 50.5332C43.0399 48.8405 47.217 50.0607 47.217 50.0607C48.7349 50.4202 48.7788 49.2735 48.7788 49.2735L48.8958 47.9743C49.0067 46.7004 50.9646 46.714 50.9646 46.714C53.543 46.613 54.6285 45.5572 55.0756 44.8123C55.5556 44.098 54.6485 43.896 54.6485 43.896C48.4267 42.1589 45.408 36.2536 45.408 36.2536C44.0025 33.7864 45.9286 32.7886 45.9286 32.7886C46.4493 32.4211 48.9996 31.5811 48.9996 31.5811C51.1042 30.7371 50.405 29.2714 50.405 29.2714C49.6243 27.6961 47.8026 28.7464 47.8026 28.7464C46.9413 29.2035 46.2931 29.1661 46.2931 29.1661C44.8543 29.1936 44.6813 28.8854 44.6813 28.8854L44.7307 22.0527C44.7307 15.8043 39.2195 10.739 32.4211 10.739H32.3031C25.5044 10.739 19.9935 15.8043 19.9935 22.0527L20.0429 28.8854C20.0429 28.8854 19.8699 29.1936 18.4311 29.1661C18.4311 29.1661 17.7829 29.2035 16.9216 28.7464C16.9216 28.7464 15.1002 27.6964 14.3192 29.2714C14.3192 29.2714 13.6194 30.7371 15.7246 31.5811C15.7246 31.5811 18.2752 32.4211 18.7955 32.7886C18.7955 32.7886 20.7217 33.7861 19.3162 36.2536C19.3162 36.2536 16.2981 42.1589 10.076 43.896C10.076 43.896 9.16864 44.0977 9.64917 44.8123C10.0963 45.5572 11.1822 46.613 13.7596 46.714C13.7596 46.714 15.7178 46.7004 15.8287 47.9743L15.946 49.2735C15.946 49.2735 15.9899 50.4202 17.5074 50.0607C17.5074 50.0607 21.6846 48.8405 24.2611 50.5332C24.2611 50.5332 24.5832 50.7596 24.8664 50.9961C24.8664 50.9961 28.0871 54.1656 32.3911 54.1656H32.3337Z" fill="white" stroke="#1A1A1A" stroke-width="1.09786" stroke-linecap="round" stroke-linejoin="round"/>
</svg>
