<svg width="63" height="72" viewBox="0 0 63 72" fill="none" xmlns="http://www.w3.org/2000/svg">
<path d="M24.5506 28.0523V25.2765C23.587 25.1239 22.6138 25.0404 21.6384 25.0264C12.1947 25.0062 3.83403 31.126 0.998091 40.1337C-1.83785 49.1415 1.50965 58.9471 9.26115 64.3405C6.41865 61.2984 4.51741 57.4985 3.78691 53.3997C3.0564 49.3008 3.52787 45.0781 5.14439 41.2413C6.76092 37.4045 9.4534 34.1176 12.8968 31.7773C16.3403 29.437 20.3875 28.1434 24.5499 28.0526L24.5506 28.0523Z" fill="#25F4EE"/>
<path d="M25.0741 59.4945C30.3542 59.4873 34.6942 55.3277 34.9254 50.0527V2.98053H43.5249C43.3494 1.99691 43.2657 0.999116 43.2748 7.62939e-06L31.5124 7.62939e-06V47.0269C31.3168 52.3286 26.9663 56.5282 21.6611 56.5367C20.0757 56.5232 18.5162 56.1334 17.111 55.3992C18.0217 56.661 19.2178 57.6897 20.6017 58.4014C21.9855 59.1131 23.518 59.4876 25.0741 59.4945ZM59.5873 18.9516V16.3352C56.4224 16.3365 53.3277 15.4026 50.6918 13.6508C53.0024 16.3371 56.1251 18.1979 59.5873 18.9516Z" fill="#25F4EE"/>
<path d="M50.6918 13.6508C48.095 10.694 46.6635 6.89281 46.6648 2.95755H43.5249C43.9304 5.13331 44.7751 7.20361 46.0073 9.04212C47.2395 10.8806 48.8334 12.4488 50.6918 13.6508ZM21.6384 36.7888C19.4363 36.8 17.3011 37.547 15.5723 38.9112C13.8435 40.2753 12.6203 42.1782 12.0973 44.3174C11.5742 46.4566 11.7813 48.7092 12.6856 50.7171C13.5899 52.7251 15.1394 54.3731 17.088 55.3992C16.0226 53.9283 15.3846 52.1914 15.2445 50.3806C15.1044 48.5698 15.4676 46.7555 16.294 45.1382C17.1203 43.5208 18.3777 42.1634 19.9272 41.2159C21.4767 40.2683 23.2579 39.7676 25.0741 39.769C26.0615 39.7819 27.042 39.9356 27.986 40.2254V28.257C27.022 28.1125 26.0489 28.0365 25.0741 28.0296H24.5506V37.1299C23.6016 36.8754 22.6206 36.7604 21.6384 36.7888Z" fill="#FE2C55"/>
<path d="M59.5874 18.9516V28.0523C53.7283 28.0409 48.0213 26.1863 43.2748 22.7511V46.6627C43.2496 58.5943 33.57 68.2537 21.6385 68.2537C17.2072 68.2617 12.8826 66.8944 9.26123 64.3405C12.2142 67.5167 16.0552 69.73 20.284 70.6921C24.5128 71.6542 28.9333 71.3205 32.9697 69.7345C37.0062 68.1485 40.4715 65.3837 42.9142 61.8002C45.3569 58.2168 46.6639 53.9807 46.6649 49.6439V25.8C51.4273 29.2125 57.1413 31.0429 63.0001 31.0328V19.3148C61.8531 19.3114 60.7094 19.1897 59.5874 18.9516Z" fill="#FE2C55"/>
<path d="M43.2747 46.6627V22.7511C48.0356 26.1667 53.7506 27.9974 59.61 27.9839V18.8836C56.1484 18.1526 53.0184 16.316 50.6917 13.6508C48.8334 12.4488 47.2395 10.8806 46.0073 9.04212C44.7751 7.20361 43.9304 5.13331 43.5249 2.95755H34.9254V50.0534C34.8416 52.1034 34.1214 54.0764 32.8647 55.6982C31.6081 57.32 29.8774 58.5101 27.9133 59.103C25.9491 59.696 23.849 59.6624 21.9049 59.0068C19.9607 58.3513 18.269 57.1064 17.0649 55.4452C15.1161 54.4193 13.5661 52.7713 12.6616 50.7632C11.7571 48.7551 11.5499 46.5022 12.073 44.3628C12.5961 42.2234 13.8194 40.3204 15.5485 38.9562C17.2775 37.592 19.413 36.8451 21.6154 36.8341C22.6031 36.843 23.5843 36.9963 24.5276 37.2893V28.1887C20.3427 28.2596 16.2689 29.5467 12.8029 31.8929C9.33691 34.2391 6.62841 37.543 5.00767 41.4019C3.38694 45.2608 2.92399 49.5079 3.67528 53.6254C4.42656 57.7428 6.35963 61.5528 9.23877 64.5906C12.8957 67.0604 17.2264 68.3398 21.6384 68.2537C33.5699 68.2537 43.2495 58.5943 43.2747 46.6627Z" fill="black"/>
</svg>
