<svg width="32" height="41" viewBox="0 0 32 41" fill="none" xmlns="http://www.w3.org/2000/svg">
<path d="M0 0H32V41L16 24.7708L0 41V0Z" fill="white"/>
<path d="M10.974 6.92263H10.42C10.3987 6.80426 10.359 6.70009 10.301 6.61013C10.243 6.52017 10.172 6.44382 10.088 6.38108C10.0039 6.31834 9.90983 6.271 9.80566 6.23904C9.70268 6.20708 9.59318 6.1911 9.47718 6.1911C9.26766 6.1911 9.08004 6.24377 8.91432 6.34912C8.74979 6.45447 8.61958 6.60895 8.5237 6.81254C8.429 7.01614 8.38165 7.26472 8.38165 7.55828C8.38165 7.85421 8.429 8.10397 8.5237 8.30757C8.61958 8.51117 8.75038 8.66505 8.9161 8.76922C9.08182 8.87339 9.26825 8.92547 9.4754 8.92547C9.59022 8.92547 9.69913 8.91008 9.80211 8.87931C9.90628 8.84735 10.0004 8.80059 10.0844 8.73904C10.1685 8.67748 10.2395 8.60232 10.2975 8.51354C10.3567 8.42358 10.3975 8.32059 10.42 8.20459L10.974 8.20637C10.9444 8.38511 10.887 8.54964 10.8018 8.69997C10.7177 8.84912 10.6094 8.97815 10.4768 9.08705C10.3454 9.19477 10.1951 9.27822 10.0258 9.3374C9.85656 9.39659 9.6719 9.42618 9.47185 9.42618C9.15699 9.42618 8.87645 9.35161 8.63023 9.20246C8.38402 9.05213 8.18989 8.83728 8.04785 8.55793C7.90699 8.27857 7.83655 7.94536 7.83655 7.55828C7.83655 7.17003 7.90758 6.83681 8.04962 6.55864C8.19167 6.27928 8.3858 6.06503 8.63201 5.91588C8.87822 5.76555 9.15817 5.69039 9.47185 5.69039C9.6648 5.69039 9.84472 5.7182 10.0116 5.77384C10.1797 5.82829 10.3306 5.90878 10.4644 6.01531C10.5982 6.12066 10.7088 6.24969 10.7964 6.40239C10.884 6.5539 10.9432 6.72732 10.974 6.92263ZM12.6867 9.43151C12.431 9.43151 12.2079 9.37291 12.0173 9.25573C11.8267 9.13854 11.6787 8.97459 11.5734 8.76389C11.468 8.55319 11.4154 8.30698 11.4154 8.02526C11.4154 7.74235 11.468 7.49495 11.5734 7.28307C11.6787 7.07119 11.8267 6.90665 12.0173 6.78946C12.2079 6.67227 12.431 6.61368 12.6867 6.61368C12.9424 6.61368 13.1655 6.67227 13.3561 6.78946C13.5466 6.90665 13.6946 7.07119 13.8 7.28307C13.9053 7.49495 13.958 7.74235 13.958 8.02526C13.958 8.30698 13.9053 8.55319 13.8 8.76389C13.6946 8.97459 13.5466 9.13854 13.3561 9.25573C13.1655 9.37291 12.9424 9.43151 12.6867 9.43151ZM12.6885 8.98584C12.8542 8.98584 12.9915 8.94204 13.1004 8.85445C13.2093 8.76685 13.2898 8.65026 13.3419 8.50466C13.3951 8.35906 13.4218 8.19867 13.4218 8.02348C13.4218 7.84948 13.3951 7.68968 13.3419 7.54408C13.2898 7.3973 13.2093 7.27952 13.1004 7.19074C12.9915 7.10196 12.8542 7.05757 12.6885 7.05757C12.5216 7.05757 12.3831 7.10196 12.273 7.19074C12.1641 7.27952 12.083 7.3973 12.0297 7.54408C11.9776 7.68968 11.9516 7.84948 11.9516 8.02348C11.9516 8.19867 11.9776 8.35906 12.0297 8.50466C12.083 8.65026 12.1641 8.76685 12.273 8.85445C12.3831 8.94204 12.5216 8.98584 12.6885 8.98584ZM14.5006 9.37646V6.64919H15.0102V7.09308H15.0439C15.1007 6.94275 15.1936 6.82557 15.3227 6.74152C15.4517 6.65629 15.6062 6.61368 15.7861 6.61368C15.9684 6.61368 16.1211 6.65629 16.2442 6.74152C16.3685 6.82675 16.4602 6.94394 16.5194 7.09308H16.5478C16.6129 6.94749 16.7165 6.83148 16.8585 6.74507C17.0006 6.65748 17.1699 6.61368 17.3663 6.61368C17.6137 6.61368 17.8156 6.69121 17.9718 6.84628C18.1293 7.00135 18.208 7.23513 18.208 7.54763V9.37646H17.6771V7.59735C17.6771 7.41269 17.6268 7.27893 17.5261 7.19607C17.4255 7.11321 17.3054 7.07178 17.1657 7.07178C16.9929 7.07178 16.8585 7.12504 16.7627 7.23158C16.6668 7.33693 16.6188 7.47246 16.6188 7.63818V9.37646H16.0897V7.56361C16.0897 7.41565 16.0436 7.29668 15.9512 7.20672C15.8589 7.11676 15.7387 7.07178 15.5908 7.07178C15.4902 7.07178 15.3972 7.09841 15.312 7.15168C15.228 7.20376 15.1599 7.27656 15.1078 7.37007C15.0569 7.46359 15.0315 7.5719 15.0315 7.695V9.37646H14.5006ZM18.8695 9.37646V6.64919H19.4004V9.37646H18.8695ZM19.1376 6.22838C19.0453 6.22838 18.966 6.19761 18.8997 6.13605C18.8346 6.07332 18.8021 5.99874 18.8021 5.91233C18.8021 5.82474 18.8346 5.75016 18.8997 5.68861C18.966 5.62587 19.0453 5.5945 19.1376 5.5945C19.23 5.5945 19.3087 5.62587 19.3738 5.68861C19.4401 5.75016 19.4732 5.82474 19.4732 5.91233C19.4732 5.99874 19.4401 6.07332 19.3738 6.13605C19.3087 6.19761 19.23 6.22838 19.1376 6.22838ZM20.5955 7.75715V9.37646H20.0646V6.64919H20.5742V7.09308H20.608C20.6707 6.94867 20.769 6.83267 20.9027 6.74507C21.0377 6.65748 21.2075 6.61368 21.4123 6.61368C21.5981 6.61368 21.7609 6.65274 21.9006 6.73087C22.0403 6.80781 22.1486 6.92263 22.2255 7.07533C22.3025 7.22803 22.3409 7.41683 22.3409 7.64173V9.37646H21.81V7.70566C21.81 7.50798 21.7585 7.3535 21.6556 7.24223C21.5526 7.12978 21.4111 7.07355 21.2312 7.07355C21.1081 7.07355 20.9986 7.10019 20.9027 7.15345C20.808 7.20672 20.7328 7.28485 20.6772 7.38783C20.6228 7.48963 20.5955 7.61273 20.5955 7.75715ZM24.1464 10.456C23.9298 10.456 23.7433 10.4276 23.5871 10.3708C23.432 10.314 23.3054 10.2388 23.2071 10.1453C23.1089 10.0518 23.0355 9.94938 22.9869 9.83811L23.4433 9.6499C23.4752 9.70199 23.5178 9.75703 23.5711 9.81503C23.6256 9.87422 23.6989 9.92452 23.7913 9.96595C23.8848 10.0074 24.0049 10.0281 24.1517 10.0281C24.3529 10.0281 24.5193 9.97897 24.6507 9.88073C24.782 9.78366 24.8477 9.6286 24.8477 9.41553V8.87931H24.814C24.782 8.93731 24.7359 9.00182 24.6755 9.07284C24.6163 9.14387 24.5346 9.20542 24.4305 9.2575C24.3263 9.30959 24.1908 9.33563 24.0239 9.33563C23.8084 9.33563 23.6143 9.28532 23.4415 9.1847C23.2699 9.0829 23.1337 8.93316 23.0331 8.73548C22.9337 8.53662 22.884 8.29218 22.884 8.00218C22.884 7.71217 22.9331 7.46359 23.0313 7.25644C23.1308 7.04929 23.2669 6.89067 23.4397 6.78058C23.6125 6.66932 23.8084 6.61368 24.0274 6.61368C24.1967 6.61368 24.3334 6.64209 24.4376 6.69891C24.5418 6.75454 24.6228 6.81965 24.6808 6.89422C24.74 6.96879 24.7856 7.03449 24.8176 7.09131H24.8566V6.64919H25.3769V9.43683C25.3769 9.67121 25.3224 9.86356 25.2135 10.0139C25.1046 10.1642 24.9572 10.2755 24.7714 10.3477C24.5867 10.4199 24.3784 10.456 24.1464 10.456ZM24.1411 8.89529C24.2938 8.89529 24.4228 8.85977 24.5281 8.78875C24.6347 8.71655 24.7152 8.61356 24.7696 8.4798C24.8253 8.34486 24.8531 8.18328 24.8531 7.99507C24.8531 7.8116 24.8258 7.65002 24.7714 7.51034C24.7169 7.37066 24.637 7.26176 24.5317 7.18364C24.4263 7.10433 24.2961 7.06468 24.1411 7.06468C23.9813 7.06468 23.8481 7.1061 23.7416 7.18896C23.635 7.27064 23.5545 7.38191 23.5001 7.52277C23.4468 7.66363 23.4202 7.82107 23.4202 7.99507C23.4202 8.17381 23.4474 8.33066 23.5019 8.4656C23.5563 8.60054 23.6368 8.70589 23.7433 8.78165C23.8511 8.85741 23.9836 8.89529 24.1411 8.89529ZM13.0102 12.6954C12.9913 12.5273 12.9131 12.3971 12.7758 12.3047C12.6385 12.2112 12.4657 12.1645 12.2574 12.1645C12.1082 12.1645 11.9792 12.1881 11.8703 12.2355C11.7614 12.2816 11.6767 12.3456 11.6164 12.4272C11.5572 12.5077 11.5276 12.5995 11.5276 12.7025C11.5276 12.7889 11.5477 12.8634 11.588 12.9262C11.6294 12.9889 11.6833 13.0416 11.7495 13.0842C11.817 13.1256 11.8892 13.1606 11.9662 13.189C12.0431 13.2162 12.1171 13.2387 12.1881 13.2564L12.5432 13.3488C12.6592 13.3772 12.7782 13.4156 12.9001 13.4642C13.022 13.5127 13.1351 13.5766 13.2392 13.6559C13.3434 13.7352 13.4275 13.8335 13.4914 13.9507C13.5565 14.0679 13.589 14.2081 13.589 14.3715C13.589 14.5775 13.5358 14.7603 13.4292 14.9201C13.3239 15.0799 13.1706 15.206 12.9694 15.2983C12.7693 15.3907 12.5272 15.4368 12.2432 15.4368C11.9709 15.4368 11.7353 15.3936 11.5365 15.3072C11.3376 15.2208 11.182 15.0983 11.0695 14.9397C10.957 14.7799 10.8949 14.5905 10.8831 14.3715H11.4335C11.4441 14.5029 11.4868 14.6124 11.5613 14.7C11.6371 14.7864 11.7336 14.8509 11.8508 14.8935C11.9691 14.9349 12.0987 14.9557 12.2396 14.9557C12.3947 14.9557 12.5326 14.9314 12.6533 14.8829C12.7752 14.8331 12.8711 14.7645 12.9409 14.6769C13.0108 14.5881 13.0457 14.4845 13.0457 14.3662C13.0457 14.2584 13.0149 14.1703 12.9534 14.1016C12.893 14.033 12.8107 13.9761 12.7066 13.9312C12.6036 13.8862 12.487 13.8465 12.3568 13.8122L11.9271 13.695C11.6359 13.6157 11.4051 13.4991 11.2346 13.3452C11.0654 13.1913 10.9807 12.9877 10.9807 12.7344C10.9807 12.5249 11.0375 12.342 11.1512 12.1858C11.2648 12.0295 11.4187 11.9082 11.6128 11.8218C11.807 11.7342 12.0259 11.6904 12.2698 11.6904C12.516 11.6904 12.7332 11.7336 12.9214 11.82C13.1108 11.9064 13.26 12.0254 13.3689 12.1769C13.4778 12.3272 13.5346 12.5 13.5393 12.6954H13.0102ZM15.3008 15.4315C15.0452 15.4315 14.822 15.3729 14.6315 15.2557C14.4409 15.1385 14.2929 14.9746 14.1876 14.7639C14.0822 14.5532 14.0295 14.307 14.0295 14.0253C14.0295 13.7424 14.0822 13.495 14.1876 13.2831C14.2929 13.0712 14.4409 12.9066 14.6315 12.7895C14.822 12.6723 15.0452 12.6137 15.3008 12.6137C15.5565 12.6137 15.7797 12.6723 15.9702 12.7895C16.1608 12.9066 16.3088 13.0712 16.4141 13.2831C16.5195 13.495 16.5721 13.7424 16.5721 14.0253C16.5721 14.307 16.5195 14.5532 16.4141 14.7639C16.3088 14.9746 16.1608 15.1385 15.9702 15.2557C15.7797 15.3729 15.5565 15.4315 15.3008 15.4315ZM15.3026 14.9858C15.4683 14.9858 15.6056 14.942 15.7145 14.8544C15.8234 14.7669 15.9039 14.6503 15.956 14.5047C16.0093 14.3591 16.0359 14.1987 16.0359 14.0235C16.0359 13.8495 16.0093 13.6897 15.956 13.5441C15.9039 13.3973 15.8234 13.2795 15.7145 13.1907C15.6056 13.102 15.4683 13.0576 15.3026 13.0576C15.1357 13.0576 14.9972 13.102 14.8871 13.1907C14.7782 13.2795 14.6971 13.3973 14.6439 13.5441C14.5918 13.6897 14.5658 13.8495 14.5658 14.0235C14.5658 14.1987 14.5918 14.3591 14.6439 14.5047C14.6971 14.6503 14.7782 14.7669 14.8871 14.8544C14.9972 14.942 15.1357 14.9858 15.3026 14.9858ZM18.2635 15.4315C18.0079 15.4315 17.7847 15.3729 17.5941 15.2557C17.4036 15.1385 17.2556 14.9746 17.1503 14.7639C17.0449 14.5532 16.9922 14.307 16.9922 14.0253C16.9922 13.7424 17.0449 13.495 17.1503 13.2831C17.2556 13.0712 17.4036 12.9066 17.5941 12.7895C17.7847 12.6723 18.0079 12.6137 18.2635 12.6137C18.5192 12.6137 18.7423 12.6723 18.9329 12.7895C19.1235 12.9066 19.2715 13.0712 19.3768 13.2831C19.4822 13.495 19.5348 13.7424 19.5348 14.0253C19.5348 14.307 19.4822 14.5532 19.3768 14.7639C19.2715 14.9746 19.1235 15.1385 18.9329 15.2557C18.7423 15.3729 18.5192 15.4315 18.2635 15.4315ZM18.2653 14.9858C18.431 14.9858 18.5683 14.942 18.6772 14.8544C18.7861 14.7669 18.8666 14.6503 18.9187 14.5047C18.972 14.3591 18.9986 14.1987 18.9986 14.0235C18.9986 13.8495 18.972 13.6897 18.9187 13.5441C18.8666 13.3973 18.7861 13.2795 18.6772 13.1907C18.5683 13.102 18.431 13.0576 18.2653 13.0576C18.0984 13.0576 17.9599 13.102 17.8498 13.1907C17.7409 13.2795 17.6598 13.3973 17.6066 13.5441C17.5545 13.6897 17.5284 13.8495 17.5284 14.0235C17.5284 14.1987 17.5545 14.3591 17.6066 14.5047C17.6598 14.6503 17.7409 14.7669 17.8498 14.8544C17.9599 14.942 18.0984 14.9858 18.2653 14.9858ZM20.6083 13.7571V15.3765H20.0774V12.6492H20.587V13.0931H20.6208C20.6835 12.9487 20.7817 12.8327 20.9155 12.7451C21.0504 12.6575 21.2203 12.6137 21.4251 12.6137C21.6109 12.6137 21.7737 12.6527 21.9134 12.7309C22.0531 12.8078 22.1614 12.9226 22.2383 13.0753C22.3152 13.228 22.3537 13.4168 22.3537 13.6417V15.3765H21.8228V13.7057C21.8228 13.508 21.7713 13.3535 21.6683 13.2422C21.5654 13.1298 21.4239 13.0736 21.244 13.0736C21.1209 13.0736 21.0114 13.1002 20.9155 13.1535C20.8208 13.2067 20.7456 13.2848 20.69 13.3878C20.6356 13.4896 20.6083 13.6127 20.6083 13.7571Z" fill="#0019FD"/>
</svg>
