<svg width="39" height="40" viewBox="0 0 39 40" fill="none" xmlns="http://www.w3.org/2000/svg">
<rect width="38.5" height="39.3021" rx="4.8125" fill="#344BFD"/>
<path d="M18.8489 23.1401C19.7513 23.1401 20.5183 22.8242 21.1499 22.1926C21.7816 21.561 22.0974 20.794 22.0974 19.8916C22.0974 18.9893 21.7816 18.2223 21.1499 17.5906C20.5183 16.959 19.7513 16.6432 18.8489 16.6432C17.9466 16.6432 17.1796 16.959 16.548 17.5906C15.9163 18.2223 15.6005 18.9893 15.6005 19.8916C15.6005 20.794 15.9163 21.561 16.548 22.1926C17.1796 22.8242 17.9466 23.1401 18.8489 23.1401ZM24.2089 25.2515C24.9307 24.5297 25.4812 23.7085 25.8601 22.7881C26.2391 21.8678 26.4286 20.9023 26.4286 19.8916C26.4286 18.881 26.2391 17.9155 25.8601 16.9951C25.4812 16.0747 24.9307 15.2536 24.2089 14.5317L22.6929 16.0476C23.2163 16.571 23.6086 17.1619 23.8699 17.8202C24.1313 18.4786 24.2623 19.169 24.263 19.8916C24.2637 20.6142 24.1327 21.3047 23.8699 21.963C23.6072 22.6214 23.2148 23.2123 22.6929 23.7356L24.2089 25.2515ZM13.489 25.2515L15.005 23.7356C14.4816 23.2123 14.0889 22.621 13.8269 21.962C13.5648 21.3029 13.4342 20.6128 13.4349 19.8916C13.4356 19.1705 13.5666 18.4804 13.8279 17.8213C14.0893 17.1622 14.4816 16.571 15.005 16.0476L13.489 14.5317C12.7671 15.2536 12.2167 16.0747 11.8377 16.9951C11.4587 17.9155 11.2693 18.881 11.2693 19.8916C11.2693 20.9023 11.4587 21.8678 11.8377 22.7881C12.2167 23.7085 12.7671 24.5297 13.489 25.2515ZM8.02081 28.5541V11.2291H29.6771V28.5541H8.02081ZM10.1864 26.3885H27.5114V13.3948H10.1864V26.3885Z" fill="white"/>
</svg>
