<svg width="15" height="24" viewBox="0 0 15 24" fill="none" xmlns="http://www.w3.org/2000/svg">
<path d="M1.20029 10.7382H13.2031C13.5215 10.7382 13.8268 10.6124 14.0519 10.3885C14.277 10.1646 14.4034 9.86098 14.4034 9.54437C14.4034 9.22776 14.277 8.92411 14.0519 8.70023C13.8268 8.47635 13.5215 8.35058 13.2031 8.35058H8.402V4.06487L9.35022 5.0199C9.4618 5.1318 9.59456 5.22061 9.74082 5.28121C9.88709 5.34182 10.044 5.37303 10.2024 5.37303C10.3609 5.37303 10.5178 5.34182 10.664 5.28121C10.8103 5.22061 10.943 5.1318 11.0546 5.0199C11.1671 4.90893 11.2564 4.77689 11.3174 4.63142C11.3783 4.48594 11.4097 4.32991 11.4097 4.17231C11.4097 4.01472 11.3783 3.85868 11.3174 3.71321C11.2564 3.56773 11.1671 3.4357 11.0546 3.32472L8.05391 0.340246C7.93976 0.231563 7.80516 0.146368 7.65782 0.0895504C7.3656 -0.0298501 7.03783 -0.0298501 6.7456 0.0895504C6.59827 0.146368 6.46366 0.231563 6.34951 0.340246L3.3488 3.32472C3.12278 3.54952 2.9958 3.8544 2.9958 4.17231C2.9958 4.49022 3.12278 4.79511 3.3488 5.0199C3.57481 5.2447 3.88136 5.37099 4.201 5.37099C4.52064 5.37099 4.82718 5.2447 5.0532 5.0199L6.00143 4.06487V8.35058H1.20029C0.88195 8.35058 0.576653 8.47635 0.351556 8.70023C0.126458 8.92411 0 9.22776 0 9.54437C0 9.86098 0.126458 10.1646 0.351556 10.3885C0.576653 10.6124 0.88195 10.7382 1.20029 10.7382ZM13.2031 13.1257H1.20029C0.88195 13.1257 0.576653 13.2515 0.351556 13.4754C0.126458 13.6993 0 14.0029 0 14.3195C0 14.6361 0.126458 14.9398 0.351556 15.1637C0.576653 15.3875 0.88195 15.5133 1.20029 15.5133H6.00143V19.799L5.0532 18.844C4.94129 18.7327 4.80843 18.6444 4.66221 18.5842C4.51599 18.5239 4.35927 18.4929 4.201 18.4929C4.04273 18.4929 3.88601 18.5239 3.73979 18.5842C3.59357 18.6444 3.46071 18.7327 3.3488 18.844C3.23688 18.9553 3.14811 19.0874 3.08754 19.2329C3.02698 19.3783 2.9958 19.5342 2.9958 19.6916C2.9958 19.849 3.02698 20.0049 3.08754 20.1503C3.14811 20.2957 3.23688 20.4279 3.3488 20.5392L6.34951 23.5237C6.46366 23.6323 6.59827 23.7175 6.7456 23.7743C6.88928 23.8375 7.04463 23.8701 7.20171 23.8701C7.35879 23.8701 7.51415 23.8375 7.65782 23.7743C7.80516 23.7175 7.93976 23.6323 8.05391 23.5237L11.0546 20.5392C11.2806 20.3144 11.4076 20.0095 11.4076 19.6916C11.4076 19.3737 11.2806 19.0688 11.0546 18.844C10.8286 18.6192 10.5221 18.4929 10.2024 18.4929C9.88279 18.4929 9.57624 18.6192 9.35022 18.844L8.402 19.799V15.5133H13.2031C13.5215 15.5133 13.8268 15.3875 14.0519 15.1637C14.277 14.9398 14.4034 14.6361 14.4034 14.3195C14.4034 14.0029 14.277 13.6993 14.0519 13.4754C13.8268 13.2515 13.5215 13.1257 13.2031 13.1257Z" fill="#000B33"/>
</svg>
