<svg width="76" height="54" viewBox="0 0 76 54" fill="none" xmlns="http://www.w3.org/2000/svg">
<path d="M31.4758 53.3101C17.0019 53.0436 12.0583 52.8039 9.01975 52.1778C6.96394 51.7619 5.17744 50.8383 3.86753 49.4988C2.85514 48.485 2.05002 46.9382 1.42538 44.7922C0.889568 43.0042 0.680885 41.5167 0.38337 37.883C-0.0720669 29.6824 -0.180639 22.9777 0.38337 15.4863C0.848677 11.3493 1.07428 6.43816 4.16505 3.57299C5.62442 2.23206 7.32209 1.36913 9.22843 1.0124C12.2064 0.446977 24.8938 0 38.0281 0C51.1329 0 63.8484 0.446977 66.8292 1.0124C69.2107 1.45937 71.4442 2.79889 72.7555 4.52617C75.5756 8.96209 75.6249 14.4781 75.9112 18.7928C76.0296 20.8486 76.0296 32.5221 75.9112 34.578C75.4656 41.3968 75.1075 43.8094 74.0951 46.3107C73.469 47.89 72.9346 48.7233 72.0096 49.6469C70.559 51.0681 68.7096 52.0135 66.708 52.3569C54.1827 53.2988 43.5469 53.5033 31.4758 53.3101ZM50.6563 25.9106C43.6879 22.1867 37.0157 18.7335 30.1955 15.1591V36.5435C37.3725 32.642 44.9386 29.0676 50.6859 25.8809L50.6563 25.9106Z" fill="#CD201F"/>
</svg>
